<svg xmlns="http://www.w3.org/2000/svg" xmlns:xlink="http://www.w3.org/1999/xlink" width="40" zoomAndPan="magnify" viewBox="0 0 30 30.000001" height="40" preserveAspectRatio="xMidYMid meet" version="1.0"><defs><clipPath id="08ecf87ba4"><path d="M 8 0.878906 L 22 0.878906 L 22 15 L 8 15 Z M 8 0.878906 " clip-rule="nonzero"/></clipPath><clipPath id="52e6858320"><path d="M 3.679688 17 L 26.179688 17 L 26.179688 28.457031 L 3.679688 28.457031 Z M 3.679688 17 " clip-rule="nonzero"/></clipPath></defs><g clip-path="url(#08ecf87ba4)"><path fill="#000000" d="M 21.414062 7.476562 C 21.414062 7.90625 21.371094 8.335938 21.289062 8.761719 C 21.207031 9.1875 21.082031 9.597656 20.921875 10 C 20.757812 10.398438 20.558594 10.777344 20.320312 11.140625 C 20.085938 11.5 19.816406 11.832031 19.515625 12.140625 C 19.214844 12.445312 18.886719 12.71875 18.53125 12.960938 C 18.179688 13.199219 17.804688 13.402344 17.410156 13.570312 C 17.019531 13.734375 16.613281 13.859375 16.195312 13.945312 C 15.777344 14.027344 15.355469 14.070312 14.929688 14.070312 C 14.503906 14.070312 14.082031 14.027344 13.664062 13.945312 C 13.246094 13.859375 12.84375 13.734375 12.449219 13.570312 C 12.054688 13.402344 11.683594 13.199219 11.328125 12.960938 C 10.972656 12.71875 10.648438 12.445312 10.34375 12.140625 C 10.042969 11.832031 9.777344 11.5 9.539062 11.140625 C 9.304688 10.777344 9.101562 10.398438 8.941406 10 C 8.777344 9.597656 8.652344 9.1875 8.570312 8.761719 C 8.488281 8.335938 8.445312 7.90625 8.445312 7.476562 C 8.445312 7.042969 8.488281 6.613281 8.570312 6.1875 C 8.652344 5.761719 8.777344 5.351562 8.941406 4.949219 C 9.101562 4.550781 9.304688 4.171875 9.539062 3.808594 C 9.777344 3.449219 10.042969 3.117188 10.34375 2.8125 C 10.648438 2.503906 10.972656 2.230469 11.328125 1.992188 C 11.683594 1.75 12.054688 1.546875 12.449219 1.382812 C 12.84375 1.214844 13.246094 1.089844 13.664062 1.003906 C 14.082031 0.921875 14.503906 0.878906 14.929688 0.878906 C 15.355469 0.878906 15.777344 0.921875 16.195312 1.003906 C 16.613281 1.089844 17.019531 1.214844 17.410156 1.382812 C 17.804688 1.546875 18.179688 1.75 18.53125 1.992188 C 18.886719 2.230469 19.214844 2.503906 19.515625 2.8125 C 19.816406 3.117188 20.085938 3.449219 20.320312 3.808594 C 20.558594 4.171875 20.757812 4.550781 20.921875 4.949219 C 21.082031 5.351562 21.207031 5.761719 21.289062 6.1875 C 21.371094 6.613281 21.414062 7.042969 21.414062 7.476562 Z M 21.414062 7.476562 " fill-opacity="1" fill-rule="nonzero"/></g><g clip-path="url(#52e6858320)"><path fill="#000000" d="M 3.6875 28.457031 C 3.6875 22.140625 8.71875 17.019531 14.929688 17.019531 C 21.140625 17.019531 26.175781 22.140625 26.175781 28.457031 Z M 3.6875 28.457031 " fill-opacity="1" fill-rule="nonzero"/></g></svg>