<svg xmlns="http://www.w3.org/2000/svg" xmlns:xlink="http://www.w3.org/1999/xlink" width="40" zoomAndPan="magnify" viewBox="0 0 30 30.000001" height="40" preserveAspectRatio="xMidYMid meet" version="1.0"><defs><clipPath id="ec4651e1cf"><path d="M 0.808594 0.328125 L 29.117188 0.328125 L 29.117188 28.632812 L 0.808594 28.632812 Z M 0.808594 0.328125 " clip-rule="nonzero"/></clipPath></defs><g clip-path="url(#ec4651e1cf)"><path fill="#000000" d="M 14.964844 0.328125 C 7.148438 0.328125 0.808594 6.664062 0.808594 14.480469 C 0.808594 22.296875 7.148438 28.632812 14.964844 28.632812 C 22.78125 28.632812 29.117188 22.296875 29.117188 14.480469 C 29.117188 6.664062 22.78125 0.328125 14.964844 0.328125 Z M 23.195312 14.878906 C 22.789062 15.285156 22.195312 15.378906 21.703125 15.160156 L 21.703125 20.53125 C 21.703125 21.648438 20.796875 22.550781 19.679688 22.550781 L 10.246094 22.550781 C 9.128906 22.550781 8.226562 21.648438 8.226562 20.53125 L 8.226562 15.160156 C 7.734375 15.378906 7.136719 15.285156 6.734375 14.878906 C 6.207031 14.355469 6.207031 13.5 6.734375 12.972656 L 14.011719 5.695312 C 14.535156 5.171875 15.390625 5.171875 15.917969 5.695312 L 23.195312 12.972656 C 23.71875 13.5 23.71875 14.355469 23.195312 14.878906 Z M 23.195312 14.878906 " fill-opacity="1" fill-rule="nonzero"/></g><path fill="#000000" d="M 16.648438 15.140625 L 13.277344 15.140625 C 12.90625 15.140625 12.605469 15.441406 12.605469 15.8125 L 12.605469 19.855469 C 12.605469 20.230469 12.90625 20.53125 13.277344 20.53125 L 16.648438 20.53125 C 17.019531 20.53125 17.320312 20.230469 17.320312 19.855469 L 17.320312 15.8125 C 17.320312 15.441406 17.019531 15.140625 16.648438 15.140625 Z M 16.648438 15.140625 " fill-opacity="1" fill-rule="nonzero"/></svg>